<svg viewBox="54.962320000000005 9.79563492063492 227.70104 220.40178571428572" xmlns="http://www.w3.org/2000/svg" id="Laag_4" style="max-height: 500px" width="227.70104" height="220.40178571428572"><defs><style>.cls-1{fill:#f8b100;}.cls-2{fill:#004668;}.cls-3{fill:#fff;}.cls-4{fill:#009cde;}.cls-5{fill:#e20613;}</style></defs><g><path d="M359.07,118.07c0,17.27-12.38,28.84-30.88,28.84h-19.31c-.41,0-.68,.27-.68,.68v34.68c0,.95-.68,1.63-1.63,1.63h-15.91c-.95,0-1.63-.68-1.63-1.63V90.18c0-.95,.68-1.63,1.63-1.63h38.36c18.09,0,30.06,11.83,30.06,29.52Zm-19.04,.41c0-8.03-5.58-13.33-13.87-13.33h-17.27c-.41,0-.68,.27-.68,.68v25.03c0,.41,.27,.68,.68,.68h17.27c8.3,0,13.87-5.3,13.87-13.06Z" class="cls-2"/><path d="M428.84,153.3c-.14,1.09-.82,1.63-1.77,1.63h-42.03c-.41,0-.68,.27-.54,.68,.27,2.04,.82,3.81,1.5,5.44,2.18,4.62,6.53,7.62,14.42,7.62,6.39-.14,10.75-2.99,13.74-7.07,.68-.95,1.36-1.09,2.18-.27l9.79,9.66c.82,.82,.82,1.5,.14,2.31-6.12,7.62-16.19,11.83-27.61,11.7-15.51,0-26.25-7.75-30.88-20.13-1.9-4.62-2.86-10.2-2.86-16.59-.14-5.17,.54-10.2,2.04-14.42,4.08-12.79,15.1-21.08,29.52-21.08,18.63,0,29.52,11.97,31.83,28.97,.54,3.67,.68,7.48,.54,11.56Zm-43.53-15.91c-.41,1.36-.68,2.72-.95,4.35,0,.41,.27,.68,.68,.68h23.53c.41,0,.68-.27,.54-.68-.27-1.5-.41-2.72-.68-3.81-1.63-5.44-5.71-8.57-11.83-8.57s-9.52,2.86-11.29,8.03Z" class="cls-2"/><path d="M502.02,137.65v44.61c0,.95-.68,1.63-1.63,1.63h-15.91c-.95,0-1.63-.68-1.63-1.63v-40.67c0-7.21-4.49-12.24-11.15-12.24s-11.15,4.9-11.15,12.24v40.67c0,.95-.68,1.63-1.63,1.63h-15.91c-.95,0-1.63-.68-1.63-1.63V115.62c0-.95,.68-1.63,1.63-1.63h15.91c.95,0,1.63,.68,1.63,1.63v4.76c0,.54,.41,.82,.68,.41,3.81-5.44,9.38-7.89,16.59-7.89,14.28,0,24.21,9.25,24.21,24.75Z" class="cls-2"/><path d="M554.93,129.36h-13.06c-.41,0-.68,.27-.68,.68v28.83c0,5.99,2.31,8.84,7.75,8.84h4.49c.95,0,1.63,.68,1.63,1.63v12.92c0,.95-.54,1.63-1.63,1.77-2.86,.14-5.58,.27-8.16,.27-13.87,0-22.44-3.26-22.58-17.82v-36.45c0-.41-.27-.68-.68-.68h-7.75c-.95,0-1.63-.68-1.63-1.63v-12.11c0-.95,.68-1.63,1.63-1.63h7.75c.41,0,.68-.27,.68-.68v-16.19c0-.95,.68-1.63,1.63-1.63h15.23c.95,0,1.63,.68,1.63,1.63v16.19c0,.41,.27,.68,.68,.68h13.06c.95,0,1.63,.68,1.63,1.63v12.11c0,.95-.68,1.63-1.63,1.63Z" class="cls-2"/><path d="M628.79,182.54l-4.08-13.33c-.14-.27-.27-.54-.68-.54h-33.46c-.41,0-.54,.27-.68,.54l-3.94,13.33c-.27,.82-.82,1.36-1.77,1.36h-17.27c-1.09,0-1.77-.68-1.36-1.9l29.38-91.95c.27-.82,.82-1.36,1.77-1.36h21.35c.95,0,1.5,.54,1.77,1.36l29.38,91.95c.41,1.22-.27,1.9-1.36,1.9h-17.27c-.95,0-1.5-.54-1.77-1.36Zm-33.46-28.7h23.94c.41,0,.68-.27,.54-.82l-12.24-40.4c-.14-.68-.68-.54-.82,0l-11.97,40.4c-.14,.54,.14,.82,.54,.82Z" class="cls-5"/><path d="M702.23,113.99h15.91c.95,0,1.63,.68,1.63,1.63v62.02c0,30.6-25.3,35.23-47.33,32.37-.95-.14-1.36-.82-1.36-1.77l.54-14.01c0-1.22,.82-1.63,1.9-1.5,16.32,2.45,27.07-.68,27.07-15.23,0-.54-.41-.68-.82-.27-3.13,3.4-8.02,5.58-15.1,5.58-10.2,0-22.31-4.22-26.79-18.09-1.63-5.03-2.04-11.02-2.04-16.19,0-6.12,.54-12.11,2.45-17.27,3.81-10.88,13.19-18.36,25.44-18.36,7.34,0,12.51,2.31,16.05,6.26,.41,.41,.82,.27,.82-.27v-3.26c0-.95,.68-1.63,1.63-1.63Zm-1.63,34.41c0-5.99-.41-8.3-1.22-10.88-1.5-4.76-5.3-8.16-11.15-8.16s-9.38,3.54-11.15,8.16c-1.22,2.58-1.9,6.12-1.9,11.02s.54,8.71,1.63,10.88c1.63,4.62,5.71,8.16,11.56,8.16s9.79-3.54,11.15-8.02c.68-2.58,1.09-5.17,1.09-11.15Z" class="cls-5"/><path d="M734.33,162.68c-1.22-4.08-1.9-8.98-1.9-13.87,0-5.17,.68-10.34,1.9-14.42,4.22-13.33,15.51-21.49,30.88-21.49s25.98,8.16,30.2,21.35c1.36,4.22,2.18,9.25,2.18,14.28s-.68,9.66-1.9,13.74c-3.94,14.01-15.23,22.71-30.6,22.71s-26.79-8.57-30.74-22.31Zm42.85-4.35c.68-2.72,1.09-6.12,1.09-9.52,0-3.67-.41-7.21-1.09-9.66-1.9-6.12-6.12-9.79-12.24-9.79s-10.34,3.81-12.11,9.79c-.82,2.45-1.09,5.99-1.09,9.66s.27,7.07,.95,9.52c1.77,6.26,6.12,10.2,12.38,10.2s10.34-3.94,12.11-10.2Z" class="cls-5"/><path d="M853.21,114.94c.82,.41,.95,1.22,.82,2.04l-2.86,15.51c-.14,1.09-.82,1.36-1.9,.95-1.77-.54-4.76-.95-7.75-.41-6.12,.54-11.7,4.76-11.7,12.11v37.13c0,.95-.68,1.63-1.63,1.63h-15.91c-.95,0-1.63-.68-1.63-1.63V115.62c0-.95,.68-1.63,1.63-1.63h15.91c.95,0,1.63,.68,1.63,1.63v5.17c0,.54,.41,.82,.68,.41,3.4-5.03,8.3-8.16,14.96-8.16,3.54,0,6.12,.82,7.75,1.9Z" class="cls-5"/><path d="M920.95,136.16v46.11c0,.95-.68,1.63-1.63,1.63h-15.91c-.95,0-1.63-.68-1.63-1.63v-4.49c0-.54-.41-.82-.82-.27-3.81,5.03-9.93,7.48-18.36,7.48-13.33,0-23.67-6.39-23.67-20.4s9.93-22.04,28.29-22.04h13.87c.41,0,.68-.27,.68-.68v-2.99c0-5.85-3.54-9.52-10.88-9.52-5.71,0-9.52,2.18-10.61,5.71-.27,.95-.82,1.5-1.77,1.36l-16.46-2.18c-.95-.14-1.63-.54-1.5-1.22,1.22-11.56,13.33-20.13,29.92-20.13,17.95,0,30.47,10.07,30.47,23.26Zm-19.18,23.4v-4.9c0-.41-.27-.68-.68-.68h-9.79c-8.03,0-13.06,3.13-13.06,8.84,0,4.9,3.81,7.89,9.52,7.89,7.62,0,14.01-4.49,14.01-11.15Z" class="cls-5"/></g><path d="M88.06,183.64c.22-.3,.43-.61,.65-.92,6.19-9.03,11.34-23.05,19.25-47.39,10.7-32.74,23.52-50.97,44.25-62.89,7.48-4.3,16.1-7.85,26.3-10.73-16.61,13.52-28.64,34.56-39.85,69.46-7.24,20.74-13.5,32.89-20.95,40.62-7.44,7.73-16.66,11.43-29.66,11.86Z" class="cls-3"/><path d="M88.06,183.64c.22-.3,.43-.61,.65-.92,6.19-9.03,11.34-23.05,19.25-47.39,10.7-32.74,23.52-50.97,44.25-62.89,7.48-4.3,16.1-7.85,26.3-10.73-16.61,13.52-28.64,34.56-39.85,69.46-7.24,20.74-13.5,32.89-20.95,40.62-7.44,7.73-16.66,11.43-29.66,11.86Z" class="cls-5"/><path d="M124.03,183.55c11.56-10.29,19.34-26.58,26.92-48.31,.02-.05,.03-.1,.05-.15,10.89-33.95,22.21-53.43,37.85-65.13,7.85-5.88,17.11-10.13,28.99-13.07-12.8,13.62-24.32,37.34-36.12,74.28-12.77,38.64-22.73,52.36-53.22,52.39h-4.47Z" class="cls-1"/><path d="M225.7,131.18c-11.4,36.17-28.54,52.32-55.56,52.34h-1.91c1.03-.92,2.03-1.9,3-2.92,9.88-10.45,16.24-25.71,22.75-45.41,0-.02,.01-.04,.02-.06,11.49-36,22.8-59.15,34.57-70.78,7.37-7.28,14.42-9.79,22.42-11.22l-25.3,78.06Z" class="cls-4"/><path d="M61.6,203.01c-.22,0-.44-.07-.63-.2-.48-.35-.59-1.03-.24-1.51,.11-.16,.22-.32,.33-.48,.19-.28,.38-.55,.58-.82,8.54-10.99,18.83-27.15,30.39-63.63,16.5-52.05,35.51-79.81,98.92-96.81,.57-.16,1.17,.19,1.32,.76,.16,.58-.19,1.17-.76,1.32-30.86,8.28-52.15,19.6-66.98,35.63-14.52,15.7-22.67,35.24-30.44,59.75-11.66,36.8-22.09,53.15-30.75,64.3-.18,.23-.34,.47-.5,.71-.12,.18-.24,.35-.37,.53-.21,.29-.54,.45-.88,.45Z" class="cls-5"/><path d="M165.5,198.22l-10.25-.17c-.6,0-1.07-.5-1.06-1.1,0-.59,.49-1.06,1.08-1.06h.02l10.23,.17c19.18-.01,33.51-4.52,45.06-14.19,12.18-10.2,21.81-26.89,29.42-51.02l28.61-93.96c.17-.57,.78-.9,1.35-.72,.57,.17,.89,.78,.72,1.35l-28.61,93.97c-14.94,47.38-37.11,66.71-76.55,66.74Z" class="cls-4"/></svg>